<svg width="16" height="16" viewBox="0 0 16 16" fill="none" xmlns="http://www.w3.org/2000/svg">
<path d="M2.46967 2.46967C2.76256 2.17678 3.23744 2.17678 3.53033 2.46967L7.99997 6.93931L12.4696 2.46967C12.7625 2.17678 13.2374 2.17678 13.5303 2.46967C13.8232 2.76256 13.8232 3.23744 13.5303 3.53033L9.06063 7.99997L13.5303 12.4697C13.8232 12.7626 13.8232 13.2374 13.5303 13.5303C13.2374 13.8232 12.7626 13.8232 12.4697 13.5303L7.99997 9.06063L3.53033 13.5303C3.23744 13.8232 2.76256 13.8232 2.46967 13.5303C2.17678 13.2374 2.17678 12.7625 2.46967 12.4696L6.93931 7.99997L2.46967 3.53033C2.17678 3.23744 2.17678 2.76256 2.46967 2.46967Z" fill="white" fill-opacity="0.85"/>
</svg>
