<svg width="20" height="20" viewBox="0 0 20 20" fill="none" xmlns="http://www.w3.org/2000/svg">
<path fill-rule="evenodd" clip-rule="evenodd" d="M1.25 10C1.25 5.16751 5.16751 1.25 10 1.25C14.8325 1.25 18.75 5.16751 18.75 10C18.75 14.8325 14.8325 18.75 10 18.75C5.16751 18.75 1.25 14.8325 1.25 10ZM10 14.6875C10.5178 14.6875 10.9375 14.2678 10.9375 13.75V10C10.9375 9.48223 10.5178 9.0625 10 9.0625C9.48223 9.0625 9.0625 9.48223 9.0625 10V13.75C9.0625 14.2678 9.48223 14.6875 10 14.6875ZM10 5.3125C10.6904 5.3125 11.25 5.87214 11.25 6.5625C11.25 7.25286 10.6904 7.8125 10 7.8125C9.30964 7.8125 8.75 7.25286 8.75 6.5625C8.75 5.87214 9.30964 5.3125 10 5.3125Z" fill="#907FF0"/>
</svg>
