<svg width="21" height="20" viewBox="0 0 21 20" fill="none" xmlns="http://www.w3.org/2000/svg">
<path fill-rule="evenodd" clip-rule="evenodd" d="M19.25 10C19.25 14.8325 15.3325 18.75 10.5 18.75C5.66751 18.75 1.75 14.8325 1.75 10C1.75 5.16751 5.66751 1.25 10.5 1.25C15.3325 1.25 19.25 5.16751 19.25 10ZM7.25666 8.86832C6.89055 8.5022 6.29696 8.5022 5.93084 8.86832C5.56472 9.23443 5.56472 9.82802 5.93084 10.1941L9.05582 13.3191C9.2371 13.5004 9.48472 13.5996 9.74103 13.5935C9.99734 13.5874 10.24 13.4766 10.4124 13.2869L15.1 8.13062C15.4482 7.74751 15.42 7.15459 15.0369 6.8063C14.6538 6.45801 14.0609 6.48624 13.7126 6.86936L9.68642 11.2981L7.25666 8.86832Z" fill="#3CD6A3"/>
</svg>
