<svg width="21" height="20" viewBox="0 0 21 20" fill="none" xmlns="http://www.w3.org/2000/svg">
<path fill-rule="evenodd" clip-rule="evenodd" d="M19.25 10C19.25 14.8325 15.3325 18.75 10.5 18.75C5.66751 18.75 1.75 14.8325 1.75 10C1.75 5.16751 5.66751 1.25 10.5 1.25C15.3325 1.25 19.25 5.16751 19.25 10ZM10.5 5.3125C11.0178 5.3125 11.4375 5.73223 11.4375 6.25V10C11.4375 10.5178 11.0178 10.9375 10.5 10.9375C9.98223 10.9375 9.5625 10.5178 9.5625 10V6.25C9.5625 5.73223 9.98223 5.3125 10.5 5.3125ZM10.5 14.6875C11.1904 14.6875 11.75 14.1279 11.75 13.4375C11.75 12.7471 11.1904 12.1875 10.5 12.1875C9.80964 12.1875 9.25 12.7471 9.25 13.4375C9.25 14.1279 9.80964 14.6875 10.5 14.6875Z" fill="#FFA62A"/>
</svg>
